<?xml version="1.0" standalone="no"?>
<!DOCTYPE svg PUBLIC "-//W3C//DTD SVG 20010904//EN"
 "http://www.w3.org/TR/2001/REC-SVG-20010904/DTD/svg10.dtd">
<svg version="1.0" xmlns="http://www.w3.org/2000/svg"
 width="256.000000pt" height="256.000000pt" viewBox="0 0 256.000000 256.000000"
 preserveAspectRatio="xMidYMid meet">
<metadata>
Created by potrace 1.14, written by Peter Selinger 2001-2017
</metadata>
<g transform="translate(0.000000,256.000000) scale(0.100000,-0.100000)"
fill="#000000" stroke="none">
<path d="M1068 2506 c-64 -54 -70 -56 -140 -43 -38 7 -91 -9 -114 -34 -57 -63
-109 -109 -123 -109 -23 0 -83 -23 -107 -40 -51 -37 -80 -119 -89 -258 -6 -92
-11 -121 -24 -123 -3 0 -34 -1 -69 -2 -55 -2 -66 -6 -91 -32 -26 -28 -37 -55
-47 -115 -3 -14 -9 -34 -14 -45 -28 -62 -55 -164 -75 -280 -2 -16 -9 -46 -15
-65 -6 -19 -24 -91 -40 -160 -17 -69 -43 -174 -59 -233 -17 -60 -31 -121 -33
-135 -2 -15 -8 -37 -14 -50 -16 -32 1 -141 27 -177 4 -6 1 -19 -6 -29 -10 -13
-11 -24 -5 -37 6 -9 8 -31 6 -48 -3 -31 30 -119 41 -107 3 3 15 -2 26 -11 14
-13 36 -18 81 -18 33 0 67 -4 75 -9 9 -6 12 -5 8 0 -3 5 3 10 14 10 10 0 19
-4 19 -8 0 -4 -5 -8 -12 -8 -6 0 -8 -3 -4 -7 4 -5 14 1 22 11 7 11 17 17 20
13 4 -4 1 -13 -5 -21 -10 -12 -9 -14 6 -11 10 1 24 -2 31 -8 9 -7 16 -7 24 1
17 17 33 15 19 -2 -10 -12 -9 -14 6 -11 10 2 21 4 26 4 4 1 7 6 7 12 0 5 -4 8
-9 4 -5 -3 -13 0 -16 6 -4 5 -13 8 -19 6 -7 -3 -13 1 -13 8 0 9 6 11 16 6 9
-4 33 -7 54 -5 31 2 37 -1 33 -13 -3 -8 -6 -18 -6 -21 0 -4 -4 0 -10 8 -5 8
-12 11 -17 7 -4 -5 -1 -12 6 -17 17 -10 43 -2 35 11 -3 5 0 9 6 9 6 0 9 4 6 8
-3 5 1 9 9 9 8 0 16 -6 19 -13 3 -8 0 -11 -8 -8 -10 4 -14 -2 -12 -19 l1 -25
20 22 c13 13 17 24 10 28 -11 8 -11 8 23 12 12 2 22 -1 22 -6 0 -5 6 -6 12 -1
17 10 97 10 91 0 -3 -5 3 -7 12 -5 10 2 20 -3 22 -9 3 -7 0 -13 -7 -13 -6 0
-8 6 -4 13 5 9 4 9 -6 0 -11 -10 -16 -9 -27 5 -11 15 -12 13 -1 -11 6 -15 14
-24 17 -20 3 4 13 8 21 8 10 0 14 8 13 23 -3 19 0 21 16 13 12 -7 22 -6 29 1
9 9 12 8 12 -4 0 -11 -7 -16 -18 -13 -11 2 -19 -3 -19 -11 0 -9 4 -11 10 -5 5
5 16 7 23 4 8 -3 14 1 14 11 0 10 5 13 17 9 12 -5 14 -3 8 8 -8 12 -6 12 8 0
10 -8 17 -9 17 -3 0 15 38 10 45 -5 4 -11 0 -11 -18 -2 l-22 12 20 -20 c22
-23 25 -22 29 3 2 9 10 18 19 20 10 1 15 -2 11 -7 -3 -5 -11 -6 -17 -2 -7 3
-3 -3 7 -15 22 -25 35 -30 16 -7 -12 14 -10 15 16 11 27 -5 28 -4 10 9 -11 8
-15 15 -8 15 6 0 17 -9 25 -20 12 -17 16 -18 20 -6 3 8 1 17 -6 19 -7 3 -3 5
9 4 11 -1 21 -7 21 -14 0 -6 -4 -10 -9 -7 -4 3 -8 1 -8 -5 0 -5 9 -9 20 -8 11
1 19 6 17 12 -6 13 50 17 59 4 4 -6 12 -5 22 3 12 10 14 10 8 1 -8 -14 6 -18
18 -6 13 13 67 9 78 -6 10 -13 10 -14 -2 -4 -11 10 -16 9 -26 -5 -8 -9 -13
-21 -14 -27 0 -5 5 -3 10 5 14 22 48 21 56 -2 3 -11 8 -17 11 -15 2 3 -2 18
-10 34 -15 28 -15 29 8 29 13 0 23 -4 22 -9 -1 -5 3 -11 10 -14 8 -3 11 3 8
18 -4 21 -4 21 15 4 11 -10 17 -22 14 -26 -8 -14 -16 -10 -8 4 4 6 3 8 -1 4
-12 -10 -16 -39 -5 -32 5 3 16 -5 24 -17 9 -12 16 -18 16 -14 0 5 -7 18 -17
28 -9 10 -12 18 -7 18 18 0 34 -24 35 -49 0 -24 1 -24 9 -6 l9 20 1 -20 c2
-11 2 -24 1 -29 -1 -5 5 -6 14 -2 10 3 18 -1 23 -14 4 -10 12 -20 17 -21 29
-5 55 -20 50 -29 -4 -6 2 -7 17 -2 34 12 115 7 133 -8 13 -11 15 -10 9 3 -5
14 -1 15 25 7 20 -5 31 -5 31 1 0 6 5 7 10 4 6 -4 8 -12 4 -18 -3 -7 2 -3 10
7 16 20 16 20 16 0 0 -16 2 -17 10 -4 5 8 10 11 10 5 0 -5 5 -3 10 5 6 10 10
11 10 3 0 -7 5 -13 11 -13 5 0 8 3 6 8 -3 4 26 7 64 8 47 1 66 -3 62 -10 -4
-6 2 -4 12 4 10 8 16 10 12 3 -4 -6 -3 -14 3 -18 5 -3 10 1 10 9 0 10 6 13 15
10 8 -4 12 -11 9 -18 -3 -6 0 -4 8 5 7 9 22 15 33 13 10 -2 26 2 34 9 12 10
13 8 7 -13 -6 -20 -5 -22 4 -8 6 10 17 15 27 11 9 -4 14 -2 11 3 -4 5 7 9 23
9 30 1 35 -4 21 -21 -4 -5 0 -3 8 6 19 19 51 25 46 8 -1 -7 -1 -9 2 -5 2 4 11
2 20 -5 9 -7 13 -8 9 -2 -8 14 8 29 42 39 16 5 21 4 17 -4 -5 -7 -1 -9 8 -5 9
3 16 9 16 13 0 12 33 10 50 -3 12 -9 13 -8 4 4 -9 11 -9 18 1 27 7 6 16 9 21
5 4 -4 4 -1 -1 7 -4 7 -3 16 4 20 6 4 14 31 18 59 3 29 11 52 17 52 17 0 73
60 84 90 5 14 8 48 6 75 -1 28 4 68 11 90 16 50 12 78 -56 380 -17 72 -32 141
-35 154 -19 90 -37 158 -46 174 -6 11 -21 70 -35 131 -14 61 -29 116 -35 123
-5 6 -11 37 -13 68 -5 70 -40 147 -93 202 l-40 42 -196 -2 c-184 -1 -198 0
-216 19 -20 20 -20 20 1 59 25 46 32 139 17 222 -9 47 -19 63 -106 159 -54 59
-112 112 -132 121 -21 10 -67 17 -116 17 -63 2 -87 6 -109 21 -60 44 -91 55
-147 55 -54 0 -60 -2 -120 -54z m-694 -2171 c6 -17 -9 -21 -19 -5 -4 6 -11 7
-17 4 -7 -4 -8 -2 -4 4 10 17 33 15 40 -3z m1876 -159 c0 -3 -4 -8 -10 -11 -5
-3 -10 -1 -10 4 0 6 5 11 10 11 6 0 10 -2 10 -4z"/>
<path d="M610 330 c-8 -5 -11 -12 -7 -17 5 -4 12 -1 17 7 7 11 10 12 10 2 0
-7 5 -10 10 -7 6 3 10 1 10 -4 0 -6 4 -11 8 -11 5 0 9 7 9 15 0 8 -2 13 -5 10
-3 -2 -12 0 -21 5 -10 5 -23 5 -31 0z"/>
<path d="M250 319 c0 -5 5 -7 10 -4 6 3 10 8 10 11 0 2 -4 4 -10 4 -5 0 -10
-5 -10 -11z"/>
<path d="M563 315 c-10 -11 -9 -13 6 -12 10 0 18 7 18 14 0 17 -9 16 -24 -2z"/>
<path d="M820 316 c-5 -5 -10 -15 -10 -20 0 -6 5 -3 11 6 5 10 16 15 24 12 8
-4 15 -2 15 3 0 13 -27 12 -40 -1z"/>
<path d="M1071 326 c20 -17 49 -25 55 -14 4 6 3 8 -4 4 -6 -3 -13 -2 -17 4 -3
5 -13 10 -22 10 -9 0 -14 -2 -12 -4z"/>
<path d="M1145 310 c-10 -11 -13 -20 -7 -20 7 0 12 4 12 10 0 5 6 7 13 4 8 -3
20 3 27 13 12 15 12 16 0 6 -17 -15 -34 -17 -25 -3 10 17 -1 11 -20 -10z"/>
<path d="M1270 310 c6 -11 15 -20 20 -20 6 0 2 9 -7 20 -10 11 -19 20 -21 20
-1 0 2 -9 8 -20z"/>
<path d="M335 300 c3 -5 8 -10 11 -10 2 0 4 5 4 10 0 6 -5 10 -11 10 -5 0 -7
-4 -4 -10z"/>
<path d="M913 295 c0 -8 4 -12 9 -9 5 3 6 10 3 15 -9 13 -12 11 -12 -6z"/>
<path d="M960 306 c0 -2 7 -7 16 -10 8 -3 12 -2 9 4 -6 10 -25 14 -25 6z"/>
<path d="M1055 301 c-4 -7 1 -8 12 -4 15 6 16 4 6 -8 -10 -13 -10 -16 1 -16
16 0 15 29 -1 34 -6 2 -14 -1 -18 -6z"/>
<path d="M595 289 c-4 -6 -5 -12 -2 -15 2 -3 7 2 10 11 7 17 1 20 -8 4z"/>
<path d="M1215 280 c3 -5 8 -10 11 -10 2 0 4 5 4 10 0 6 -5 10 -11 10 -5 0 -7
-4 -4 -10z"/>
<path d="M1296 262 c-2 -4 4 -8 15 -8 10 0 19 4 19 8 0 10 -27 10 -34 0z"/>
<path d="M2275 160 c3 -5 8 -10 11 -10 2 0 4 5 4 10 0 6 -5 10 -11 10 -5 0 -7
-4 -4 -10z"/>
<path d="M2135 149 c-4 -6 -5 -12 -2 -15 2 -3 7 2 10 11 7 17 1 20 -8 4z"/>
<path d="M1830 136 c7 -7 13 -7 20 0 6 6 3 10 -10 10 -13 0 -16 -4 -10 -10z"/>
<path d="M1873 125 c0 -8 4 -12 9 -9 5 3 6 10 3 15 -9 13 -12 11 -12 -6z"/>
</g>
</svg>
